<svg width="13" height="9" viewBox="0 0 13 9" fill="none" xmlns="http://www.w3.org/2000/svg">
<path d="M5.66562 8.40028C5.71092 8.43577 5.7591 8.46725 5.80962 8.49439C5.86472 8.53883 5.92401 8.57756 5.98662 8.60999C6.05171 8.63111 6.11871 8.6455 6.18662 8.65295C6.31485 8.69641 6.45338 8.69641 6.58162 8.65295C6.64952 8.6455 6.71652 8.63111 6.78162 8.60999C6.84387 8.5775 6.90282 8.53878 6.95762 8.49439C7.00951 8.46745 7.05903 8.43596 7.10562 8.40028L12.3886 2.62982C12.5688 2.41845 12.6618 2.14376 12.6479 1.86365C12.6341 1.58353 12.5144 1.31987 12.3142 1.12821C12.114 0.936563 11.8489 0.831895 11.5748 0.836268C11.3006 0.84064 11.0389 0.953712 10.8446 1.15165L6.32462 6.07818L1.80461 1.15165C1.61036 0.953712 1.34858 0.84064 1.07443 0.836268C0.800285 0.831895 0.535185 0.936563 0.334997 1.12821C0.134809 1.31987 0.0151711 1.58353 0.00129604 1.86365C-0.0125799 2.14376 0.0803909 2.41845 0.260614 2.62982L5.66562 8.40028Z" fill="white"/>
</svg>
