<svg width="9" height="9" viewBox="0 0 9 9" fill="none" xmlns="http://www.w3.org/2000/svg">
<path d="M3.67301 8.51524C3.55785 8.51525 3.4443 8.48747 3.34161 8.43414C3.23892 8.38082 3.14998 8.30346 3.08201 8.20836L1.14703 5.6162C1.0866 5.5365 1.04243 5.4452 1.01712 5.34772C0.991816 5.25023 0.985886 5.14855 0.999686 5.04868C1.01349 4.94881 1.04674 4.85279 1.09747 4.7663C1.1482 4.67982 1.21537 4.60462 1.29502 4.54517C1.37302 4.48241 1.46263 4.43643 1.55844 4.41C1.65426 4.38357 1.75431 4.37724 1.85258 4.39138C1.95085 4.40553 2.04531 4.43985 2.13028 4.4923C2.21525 4.54474 2.28897 4.61423 2.34702 4.69657L3.60501 6.39978L6.77499 1.17966C6.82326 1.0866 6.88973 1.00468 6.97026 0.939006C7.05079 0.873332 7.14367 0.825305 7.24312 0.79791C7.34257 0.770515 7.44646 0.764338 7.54834 0.779762C7.65022 0.795185 7.74791 0.831881 7.83534 0.887567C7.92277 0.943254 7.99807 1.01674 8.05655 1.10346C8.11504 1.19018 8.15546 1.28828 8.17531 1.39166C8.19516 1.49504 8.19401 1.60149 8.17194 1.70439C8.14986 1.8073 8.10733 1.90446 8.04698 1.98984L4.30401 8.15823C4.24049 8.2637 4.15248 8.35147 4.0478 8.41376C3.94313 8.47604 3.82503 8.5109 3.70401 8.51524H3.67301Z" fill="white"/>
</svg>
