<svg width="15" height="4" viewBox="0 0 15 4" fill="none" xmlns="http://www.w3.org/2000/svg">
<path d="M1.5 3.89502C2.32843 3.89502 3 3.20803 3 2.3606C3 1.51316 2.32843 0.826172 1.5 0.826172C0.671573 0.826172 0 1.51316 0 2.3606C0 3.20803 0.671573 3.89502 1.5 3.89502Z" fill="#959DB3"/>
<path d="M7.5 3.89502C8.32843 3.89502 9 3.20803 9 2.3606C9 1.51316 8.32843 0.826172 7.5 0.826172C6.67157 0.826172 6 1.51316 6 2.3606C6 3.20803 6.67157 3.89502 7.5 3.89502Z" fill="#959DB3"/>
<path d="M13.5 3.89502C14.3284 3.89502 15 3.20803 15 2.3606C15 1.51316 14.3284 0.826172 13.5 0.826172C12.6716 0.826172 12 1.51316 12 2.3606C12 3.20803 12.6716 3.89502 13.5 3.89502Z" fill="#959DB3"/>
</svg>
