<svg width="16" height="16" viewBox="0 0 16 16" fill="none" xmlns="http://www.w3.org/2000/svg">
<path d="M14.4237 15.9948C14.2775 15.9948 14.1368 15.9386 14.0308 15.8378L10.4017 12.1638C9.29591 12.9574 7.96885 13.3838 6.60775 13.3828C5.59302 13.3825 4.5922 13.1469 3.68387 12.6946C2.77554 12.2422 1.98446 11.5854 1.37275 10.7758C0.334348 9.40631 -0.14316 7.69257 0.0374174 5.9834C0.217994 4.27424 1.04308 2.69811 2.34475 1.57583C3.63983 0.465423 5.31739 -0.0952653 7.01988 0.0132651C8.72237 0.121796 10.3151 0.890962 11.4587 2.15683C12.6126 3.43179 13.2372 5.09861 13.2052 6.81789C13.1733 8.53717 12.4872 10.1796 11.2867 11.4108L14.8468 14.9948V15.0138C14.9491 15.1253 15.0048 15.2718 15.0022 15.4231C14.9996 15.5744 14.9389 15.719 14.8328 15.8268C14.7792 15.8807 14.7154 15.9233 14.6452 15.9521C14.575 15.981 14.4997 15.9955 14.4237 15.9948ZM6.64575 1.26483C5.1974 1.26483 3.80838 1.84019 2.78424 2.86432C1.7601 3.88846 1.18475 5.27748 1.18475 6.72583C1.18475 8.17418 1.7601 9.5632 2.78424 10.5873C3.80838 11.6115 5.1974 12.1868 6.64575 12.1868C8.0941 12.1868 9.48312 11.6115 10.5073 10.5873C11.5314 9.5632 12.1067 8.17418 12.1067 6.72583C12.1067 5.27748 11.5314 3.88846 10.5073 2.86432C9.48312 1.84019 8.0941 1.26483 6.64575 1.26483Z" fill="white"/>
</svg>
