<svg width="15" height="18" viewBox="0 0 15 18" fill="none" xmlns="http://www.w3.org/2000/svg">
<path d="M7.47006 18C7.01757 17.9974 6.5704 17.9022 6.1561 17.7202C5.7418 17.5383 5.36913 17.2734 5.06106 16.942C4.95643 16.8269 4.89845 16.677 4.89845 16.5215C4.89845 16.366 4.95643 16.2161 5.06106 16.101H1.20006C0.93825 16.0988 0.684354 16.011 0.477087 15.851C0.26982 15.6911 0.120556 15.4677 0.0520571 15.215C-0.0213657 14.9678 -0.0122842 14.7034 0.077928 14.4618C0.16814 14.2202 0.334575 14.0146 0.552057 13.876C0.702057 13.731 2.01506 12.334 2.01506 7.947C2.04164 6.45556 2.57048 5.01668 3.51606 3.863C4.01623 3.23651 4.6433 2.72293 5.35606 2.356C5.3529 2.3194 5.3529 2.2826 5.35606 2.246C5.34533 1.66243 5.56631 1.0984 5.9706 0.677429C6.37489 0.256459 6.92953 0.0128659 7.51306 0C8.09676 0.0126051 8.65165 0.256084 9.05616 0.677083C9.46066 1.09808 9.68178 1.66226 9.67106 2.246C9.6742 2.2826 9.6742 2.3194 9.67106 2.356C10.3838 2.72291 11.0109 3.23649 11.5111 3.863C12.4586 5.01561 12.9895 6.45418 13.0181 7.946C13.0181 12.346 14.3351 13.746 14.4851 13.887C14.6935 14.0388 14.8493 14.252 14.9308 14.4967C15.0122 14.7414 15.0152 15.0054 14.9393 15.2519C14.8634 15.4984 14.7125 15.715 14.5075 15.8715C14.3025 16.0281 14.0538 16.1167 13.7961 16.125H9.87906C9.97709 16.2385 10.031 16.3835 10.031 16.5335C10.031 16.6835 9.97709 16.8285 9.87906 16.942C9.57098 17.2734 9.19832 17.5383 8.78402 17.7202C8.36972 17.9022 7.92255 17.9974 7.47006 18ZM5.92806 16.109C6.12666 16.3202 6.3661 16.4889 6.63186 16.6047C6.89762 16.7206 7.18415 16.7812 7.47406 16.783H7.50006C7.78727 16.7791 8.07077 16.7175 8.33364 16.6017C8.5965 16.4859 8.83335 16.3183 9.03006 16.109H5.92806ZM2.33806 13.255C2.11633 13.8816 1.74167 14.4429 1.24806 14.888H13.8061C13.3121 14.443 12.9371 13.8817 12.7151 13.255H2.33806ZM7.52506 3.046C5.05506 3.046 3.21006 5.633 3.21006 7.946C3.23237 9.32103 3.07811 10.6932 2.75106 12.029H12.3001C11.973 10.6932 11.8187 9.32103 11.8411 7.946C11.8401 5.633 9.99506 3.046 7.52506 3.046ZM7.52506 1.82C7.83375 1.82049 8.1415 1.85402 8.44306 1.92C8.37286 1.72695 8.24934 1.55777 8.08685 1.43209C7.92436 1.30642 7.72956 1.22941 7.52506 1.21C7.32059 1.22953 7.12585 1.30658 6.96338 1.43224C6.80091 1.5579 6.67736 1.72701 6.60706 1.92C6.9087 1.85466 7.21642 1.82147 7.52506 1.821V1.82Z" fill="#5A6276"/>
</svg>
