<svg width="18" height="20" viewBox="0 0 18 20" fill="none" xmlns="http://www.w3.org/2000/svg">
<path d="M17.3059 19.1909C17.1304 19.1908 16.9616 19.1234 16.8344 19.0025L12.4802 14.5944C11.1534 15.5465 9.56119 16.0581 7.92811 16.057C6.71062 16.0566 5.50981 15.7739 4.41998 15.2312C3.33015 14.6885 2.38099 13.9004 1.64705 12.9291C0.401157 11.2859 -0.171766 9.2297 0.0448941 7.17901C0.261554 5.12832 1.25151 3.23725 2.81328 1.89071C4.36715 0.558424 6.37991 -0.114301 8.42259 0.0159157C10.4653 0.146133 12.3763 1.06899 13.7484 2.58781C15.1329 4.11753 15.8822 6.11741 15.8439 8.18024C15.8055 10.2431 14.9824 12.2137 13.5421 13.6909L17.8134 17.9911V18.0139C17.9363 18.1476 18.003 18.3234 17.9999 18.505C17.9968 18.6865 17.924 18.8599 17.7966 18.9893C17.7324 19.0539 17.6559 19.105 17.5716 19.1397C17.4873 19.1743 17.397 19.1917 17.3059 19.1909ZM7.9737 1.51757C6.23595 1.51757 4.56936 2.20789 3.34059 3.43667C2.11181 4.66545 1.42149 6.33203 1.42149 8.06979C1.42149 9.80754 2.11181 11.4741 3.34059 12.7029C4.56936 13.9317 6.23595 14.622 7.9737 14.622C9.71146 14.622 11.378 13.9317 12.6068 12.7029C13.8356 11.4741 14.5259 9.80754 14.5259 8.06979C14.5259 6.33203 13.8356 4.66545 12.6068 3.43667C11.378 2.20789 9.71146 1.51757 7.9737 1.51757Z" fill="#5A6276"/>
</svg>
