<svg width="23" height="26" viewBox="0 0 23 26" fill="none" xmlns="http://www.w3.org/2000/svg">
<g filter="url(#filter0_d_940_953)">
<path d="M15.053 0.781678H5.579C5.37316 0.776921 5.16841 0.8119 4.97684 0.884551C4.78526 0.957203 4.61074 1.06606 4.46357 1.20469C4.3164 1.34332 4.19956 1.50892 4.11994 1.69173C4.04033 1.87453 3.99954 2.07084 4 2.26906V12.6846H5.579V2.26906H15.053V0.781678ZM17.421 3.75741H8.737C8.53116 3.75265 8.32641 3.78763 8.13484 3.86028C7.94326 3.93293 7.76874 4.04179 7.62157 4.18042C7.4744 4.31905 7.35756 4.48465 7.27794 4.66746C7.19833 4.85026 7.15754 5.04657 7.158 5.24479V15.6603C7.15754 15.8586 7.19833 16.0549 7.27794 16.2377C7.35756 16.4205 7.4744 16.5861 7.62157 16.7247C7.76874 16.8633 7.94326 16.9722 8.13484 17.0448C8.32641 17.1175 8.53116 17.1525 8.737 17.1477H17.421C17.6268 17.1525 17.8316 17.1175 18.0232 17.0448C18.2147 16.9722 18.3893 16.8633 18.5364 16.7247C18.6836 16.5861 18.8004 16.4205 18.8801 16.2377C18.9597 16.0549 19.0005 15.8586 19 15.6603V5.24479C19.0005 5.04657 18.9597 4.85026 18.8801 4.66746C18.8004 4.48465 18.6836 4.31905 18.5364 4.18042C18.3893 4.04179 18.2147 3.93293 18.0232 3.86028C17.8316 3.78763 17.6268 3.75265 17.421 3.75741ZM17.421 15.6603H8.737V5.24479H17.421V15.6603Z" fill="white"/>
</g>
<defs>
<filter id="filter0_d_940_953" x="0" y="0.78125" width="23" height="24.3667" filterUnits="userSpaceOnUse" color-interpolation-filters="sRGB">
<feFlood flood-opacity="0" result="BackgroundImageFix"/>
<feColorMatrix in="SourceAlpha" type="matrix" values="0 0 0 0 0 0 0 0 0 0 0 0 0 0 0 0 0 0 127 0" result="hardAlpha"/>
<feOffset dy="4"/>
<feGaussianBlur stdDeviation="2"/>
<feColorMatrix type="matrix" values="0 0 0 0 0 0 0 0 0 0 0 0 0 0 0 0 0 0 0.25 0"/>
<feBlend mode="normal" in2="BackgroundImageFix" result="effect1_dropShadow_940_953"/>
<feBlend mode="normal" in="SourceGraphic" in2="effect1_dropShadow_940_953" result="shape"/>
</filter>
</defs>
</svg>
